<?xml version="1.0" standalone="no"?>
<!DOCTYPE svg PUBLIC "-//W3C//DTD SVG 20010904//EN"
 "http://www.w3.org/TR/2001/REC-SVG-20010904/DTD/svg10.dtd">
<svg version="1.0" xmlns="http://www.w3.org/2000/svg"
 width="1280.000000pt" height="1280.000000pt" viewBox="0 0 1280.000000 1280.000000"
 preserveAspectRatio="xMidYMid meet">
<metadata>
Created by potrace 1.15, written by Peter Selinger 2001-2017
</metadata>
<g transform="translate(0.000000,1280.000000) scale(0.100000,-0.100000)"
fill="#000000" stroke="none">
<path d="M3208 11053 l-808 -3 0 -4649 0 -4649 1043 -6 c573 -4 1255 -6 1516
-4 l475 3 108 340 108 340 -3 1352 -2 1351 825 5 c868 5 962 9 1286 57 878
130 1514 458 1958 1010 428 532 636 1239 612 2085 -18 674 -168 1201 -468
1647 -154 230 -386 462 -618 617 -426 286 -965 451 -1640 501 -124 9 -2001 10
-4392 3z m3436 -2437 c279 -54 428 -142 546 -322 87 -133 123 -266 124 -455 0
-112 -1 -117 -33 -175 -142 -252 -371 -393 -741 -454 -183 -31 -326 -40 -617
-40 l-273 0 -2 736 c-2 405 -2 736 -1 737 1 1 205 -1 455 -4 368 -5 470 -9
542 -23z"/>
</g>
</svg>
